<svg width="1200" height="590" viewBox="0 0 1200 590" fill="none" xmlns="http://www.w3.org/2000/svg" role="img" aria-label="Academic Progress Board">
  <defs>
    <linearGradient id="bg" x1="0" y1="0" x2="1200" y2="590">
      <stop stop-color="#020617"/>
      <stop offset=".58" stop-color="#07111F"/>
      <stop offset="1" stop-color="#111827"/>
    </linearGradient>
    <linearGradient id="aura" x1="76" y1="40" x2="1124" y2="560">
      <stop stop-color="#22D3EE"/>
      <stop offset=".5" stop-color="#8B5CF6"/>
      <stop offset="1" stop-color="#F59E0B"/>
    </linearGradient>
    <filter id="shadow" x="-20%" y="-20%" width="140%" height="140%">
      <feDropShadow dx="0" dy="12" stdDeviation="14" flood-color="#000" flood-opacity=".30"/>
    </filter>
    <style>
      .title{font:800 42px Inter,Segoe UI,Arial,sans-serif;fill:#F8FAFC}
      .sub{font:600 18px Inter,Segoe UI,Arial,sans-serif;fill:#A5F3FC}
      .label{font:700 22px Inter,Segoe UI,Arial,sans-serif;fill:#E5E7EB}
      .small{font:500 17px Inter,Segoe UI,Arial,sans-serif;fill:#CBD5E1}
      .num{font:900 50px Inter,Segoe UI,Arial,sans-serif;fill:#F8FAFC}
      .micro{font:700 13px Inter,Segoe UI,Arial,sans-serif;fill:#94A3B8;letter-spacing:1.4px}
    </style>
  </defs>
  <rect width="1200" height="590" rx="30" fill="url(#bg)"/>
  <rect x="1" y="1" width="1198" height="588" rx="30" stroke="url(#aura)" stroke-opacity=".48"/>
  <text x="70" y="72" class="title">Academic Progress Board</text>
  <text x="70" y="104" class="sub">Simple education and recognition snapshot for professors, APs, and admissions committees.</text>
  <g filter="url(#shadow)">
      <rect x="70" y="150" width="250" height="245" rx="24" fill="#0F172A" stroke="#334155"/>
      <circle cx="195" cy="128" r="16" fill="#22D3EE"/>
      <rect x="124" y="428" width="142" height="34" rx="17" fill="#020617" stroke="#334155"/>
      <text x="195" y="197" text-anchor="middle" class="label">MSCS</text>
      <text x="195" y="241" text-anchor="middle" class="small">AIUB</text>
      <text x="195" y="288" text-anchor="middle" class="label">Ongoing</text>
      <text x="195" y="340" text-anchor="middle" class="small">Graduate CS study</text>
      <text x="195" y="451" text-anchor="middle" class="micro">ACADEMIC NODE</text>
    </g><g filter="url(#shadow)">
      <rect x="352" y="150" width="250" height="245" rx="24" fill="#0F172A" stroke="#334155"/>
      <circle cx="477" cy="128" r="16" fill="#22D3EE"/>
      <rect x="406" y="428" width="142" height="34" rx="17" fill="#020617" stroke="#334155"/>
      <text x="477" y="197" text-anchor="middle" class="label">MSCS / PMSCS</text>
      <text x="477" y="241" text-anchor="middle" class="small">Jahangirnagar University</text>
      <text x="477" y="288" text-anchor="middle" class="label">CGPA 3.944 / 4.00</text>
      <text x="477" y="340" text-anchor="middle" class="small">Advanced academic record</text>
      <text x="477" y="451" text-anchor="middle" class="micro">ACADEMIC NODE</text>
    </g><g filter="url(#shadow)">
      <rect x="634" y="150" width="250" height="245" rx="24" fill="#0F172A" stroke="#334155"/>
      <circle cx="759" cy="128" r="16" fill="#22D3EE"/>
      <rect x="688" y="428" width="142" height="34" rx="17" fill="#020617" stroke="#334155"/>
      <text x="759" y="197" text-anchor="middle" class="label">BSc CSE</text>
      <text x="759" y="241" text-anchor="middle" class="small">AIUB</text>
      <text x="759" y="288" text-anchor="middle" class="label">CGPA 3.92 / 4.00</text>
      <text x="759" y="340" text-anchor="middle" class="small">Strong CS foundation</text>
      <text x="759" y="451" text-anchor="middle" class="micro">ACADEMIC NODE</text>
    </g><g filter="url(#shadow)">
      <rect x="916" y="150" width="250" height="245" rx="24" fill="#0F172A" stroke="#334155"/>
      <circle cx="1041" cy="128" r="16" fill="#22D3EE"/>
      <rect x="970" y="428" width="142" height="34" rx="17" fill="#020617" stroke="#334155"/>
      <text x="1041" y="197" text-anchor="middle" class="label">Recognition</text>
      <text x="1041" y="241" text-anchor="middle" class="small">Dean's List x4</text>
      <text x="1041" y="288" text-anchor="middle" class="label">AIUB Scholarship</text>
      <text x="1041" y="340" text-anchor="middle" class="small">Academic consistency</text>
      <text x="1041" y="451" text-anchor="middle" class="micro">ACADEMIC NODE</text>
    </g>
    <path d="M195 128H1005" stroke="url(#aura)" stroke-width="5" stroke-linecap="round" opacity=".75"/>
    <rect x="238" y="490" width="724" height="44" rx="22" fill="#020617" stroke="#334155"/>
    <text x="600" y="519" text-anchor="middle" class="small">Publication base: image encryption and multi-key secure transformation</text>
  <text x="70" y="558" class="micro">AUTO-GENERATED BY WORKFLOW - UPDATED 2026-07-06</text>
</svg>