<svg width="1200" height="620" viewBox="0 0 1200 620" fill="none" xmlns="http://www.w3.org/2000/svg" role="img" aria-label="Capability Matrix">
  <defs>
    <linearGradient id="bg" x1="0" y1="0" x2="1200" y2="620">
      <stop stop-color="#020617"/>
      <stop offset=".58" stop-color="#07111F"/>
      <stop offset="1" stop-color="#111827"/>
    </linearGradient>
    <linearGradient id="aura" x1="76" y1="40" x2="1124" y2="590">
      <stop stop-color="#22D3EE"/>
      <stop offset=".5" stop-color="#8B5CF6"/>
      <stop offset="1" stop-color="#F59E0B"/>
    </linearGradient>
    <filter id="shadow" x="-20%" y="-20%" width="140%" height="140%">
      <feDropShadow dx="0" dy="12" stdDeviation="14" flood-color="#000" flood-opacity=".30"/>
    </filter>
    <style>
      .title{font:800 42px Inter,Segoe UI,Arial,sans-serif;fill:#F8FAFC}
      .sub{font:600 18px Inter,Segoe UI,Arial,sans-serif;fill:#A5F3FC}
      .label{font:700 22px Inter,Segoe UI,Arial,sans-serif;fill:#E5E7EB}
      .small{font:500 17px Inter,Segoe UI,Arial,sans-serif;fill:#CBD5E1}
      .num{font:900 50px Inter,Segoe UI,Arial,sans-serif;fill:#F8FAFC}
      .micro{font:700 13px Inter,Segoe UI,Arial,sans-serif;fill:#94A3B8;letter-spacing:1.4px}
    </style>
  </defs>
  <rect width="1200" height="620" rx="30" fill="url(#bg)"/>
  <rect x="1" y="1" width="1198" height="618" rx="30" stroke="url(#aura)" stroke-opacity=".48"/>
  <text x="70" y="72" class="title">Capability Matrix</text>
  <text x="70" y="104" class="sub">Readable skill balance across engineering, research, and instruction.</text>
  <g>
      <text x="90" y="167" class="label">Backend Engineering</text>
      <text x="90" y="193" class="small">PHP, Symfony, Spring Boot, APIs</text>
      <rect x="470" y="149" width="560" height="30" rx="15" fill="#1E293B"/>
      <rect x="470" y="149" width="754" height="30" rx="15" fill="url(#aura)"/>
      <text x="1085" y="172" text-anchor="end" class="label">92</text>
    </g><g>
      <text x="90" y="239" class="label">Database Systems</text>
      <text x="90" y="265" class="small">MySQL, PostgreSQL, Microsoft SQL</text>
      <rect x="470" y="221" width="560" height="30" rx="15" fill="#1E293B"/>
      <rect x="470" y="221" width="705" height="30" rx="15" fill="url(#aura)"/>
      <text x="1085" y="244" text-anchor="end" class="label">86</text>
    </g><g>
      <text x="90" y="311" class="label">Frontend Delivery</text>
      <text x="90" y="337" class="small">JavaScript, TypeScript, React, UI</text>
      <rect x="470" y="293" width="560" height="30" rx="15" fill="#1E293B"/>
      <rect x="470" y="293" width="607" height="30" rx="15" fill="url(#aura)"/>
      <text x="1085" y="316" text-anchor="end" class="label">74</text>
    </g><g>
      <text x="90" y="383" class="label">Research Implementation</text>
      <text x="90" y="409" class="small">Security, algorithms, reproducible experiments</text>
      <rect x="470" y="365" width="560" height="30" rx="15" fill="#1E293B"/>
      <rect x="470" y="365" width="672" height="30" rx="15" fill="url(#aura)"/>
      <text x="1085" y="388" text-anchor="end" class="label">82</text>
    </g><g>
      <text x="90" y="455" class="label">Teaching and Mentoring</text>
      <text x="90" y="481" class="small">CS instruction, OOP, documentation</text>
      <rect x="470" y="437" width="560" height="30" rx="15" fill="#1E293B"/>
      <rect x="470" y="437" width="722" height="30" rx="15" fill="url(#aura)"/>
      <text x="1085" y="460" text-anchor="end" class="label">88</text>
    </g><g>
      <text x="90" y="527" class="label">Technical Writing</text>
      <text x="90" y="553" class="small">LaTeX, reports, reproducible notes</text>
      <rect x="470" y="509" width="560" height="30" rx="15" fill="#1E293B"/>
      <rect x="470" y="509" width="656" height="30" rx="15" fill="url(#aura)"/>
      <text x="1085" y="532" text-anchor="end" class="label">80</text>
    </g>
  <text x="70" y="588" class="micro">AUTO-GENERATED BY WORKFLOW - UPDATED 2026-07-01</text>
</svg>