<svg width="1200" height="500" viewBox="0 0 1200 500" fill="none" xmlns="http://www.w3.org/2000/svg" role="img" aria-label="GitHub Metrics">
  <defs>
    <linearGradient id="bg" x1="0" y1="0" x2="1200" y2="500">
      <stop stop-color="#020617"/>
      <stop offset=".58" stop-color="#07111F"/>
      <stop offset="1" stop-color="#111827"/>
    </linearGradient>
    <linearGradient id="aura" x1="76" y1="40" x2="1124" y2="470">
      <stop stop-color="#22D3EE"/>
      <stop offset=".5" stop-color="#8B5CF6"/>
      <stop offset="1" stop-color="#F59E0B"/>
    </linearGradient>
    <filter id="shadow" x="-20%" y="-20%" width="140%" height="140%">
      <feDropShadow dx="0" dy="12" stdDeviation="14" flood-color="#000" flood-opacity=".30"/>
    </filter>
    <style>
      .title{font:800 42px Inter,Segoe UI,Arial,sans-serif;fill:#F8FAFC}
      .sub{font:600 18px Inter,Segoe UI,Arial,sans-serif;fill:#A5F3FC}
      .label{font:700 22px Inter,Segoe UI,Arial,sans-serif;fill:#E5E7EB}
      .small{font:500 17px Inter,Segoe UI,Arial,sans-serif;fill:#CBD5E1}
      .num{font:900 50px Inter,Segoe UI,Arial,sans-serif;fill:#F8FAFC}
      .micro{font:700 13px Inter,Segoe UI,Arial,sans-serif;fill:#94A3B8;letter-spacing:1.4px}
    </style>
  </defs>
  <rect width="1200" height="500" rx="30" fill="url(#bg)"/>
  <rect x="1" y="1" width="1198" height="498" rx="30" stroke="url(#aura)" stroke-opacity=".48"/>
  <text x="70" y="72" class="title">GitHub Metrics</text>
  <text x="70" y="104" class="sub">High-level repository and contribution indicators.</text>
  <g filter="url(#shadow)">
      <rect x="70" y="145" width="316" height="100" rx="20" fill="#0F172A" stroke="#334155"/>
      <text x="94" y="177" class="micro">CONTRIBUTIONS</text>
      <text x="94" y="223" class="num">267</text>
      <text x="250" y="219" class="small">GitHub year</text>
    </g><g filter="url(#shadow)">
      <rect x="424" y="145" width="316" height="100" rx="20" fill="#0F172A" stroke="#334155"/>
      <text x="448" y="177" class="micro">REPOSITORIES</text>
      <text x="448" y="223" class="num">94</text>
      <text x="604" y="219" class="small">public repos</text>
    </g><g filter="url(#shadow)">
      <rect x="778" y="145" width="316" height="100" rx="20" fill="#0F172A" stroke="#334155"/>
      <text x="802" y="177" class="micro">STARS</text>
      <text x="802" y="223" class="num">17</text>
      <text x="958" y="219" class="small">repository stars</text>
    </g><g filter="url(#shadow)">
      <rect x="70" y="271" width="316" height="100" rx="20" fill="#0F172A" stroke="#334155"/>
      <text x="94" y="303" class="micro">FOLLOWERS</text>
      <text x="94" y="349" class="num">16</text>
      <text x="250" y="345" class="small">followers</text>
    </g><g filter="url(#shadow)">
      <rect x="424" y="271" width="316" height="100" rx="20" fill="#0F172A" stroke="#334155"/>
      <text x="448" y="303" class="micro">CURRENT STREAK</text>
      <text x="448" y="349" class="num">2</text>
      <text x="604" y="345" class="small">active days</text>
    </g><g filter="url(#shadow)">
      <rect x="778" y="271" width="316" height="100" rx="20" fill="#0F172A" stroke="#334155"/>
      <text x="802" y="303" class="micro">LONGEST STREAK</text>
      <text x="802" y="349" class="num">7</text>
      <text x="958" y="345" class="small">best run</text>
    </g>
  <text x="70" y="468" class="micro">AUTO-GENERATED BY WORKFLOW - UPDATED 2026-07-09</text>
</svg>