<svg width="1200" height="560" viewBox="0 0 1200 560" fill="none" xmlns="http://www.w3.org/2000/svg" role="img" aria-label="Repository Language Distribution">
  <defs>
    <linearGradient id="bg" x1="0" y1="0" x2="1200" y2="560">
      <stop stop-color="#020617"/>
      <stop offset=".58" stop-color="#07111F"/>
      <stop offset="1" stop-color="#111827"/>
    </linearGradient>
    <linearGradient id="aura" x1="76" y1="40" x2="1124" y2="530">
      <stop stop-color="#22D3EE"/>
      <stop offset=".5" stop-color="#8B5CF6"/>
      <stop offset="1" stop-color="#F59E0B"/>
    </linearGradient>
    <filter id="shadow" x="-20%" y="-20%" width="140%" height="140%">
      <feDropShadow dx="0" dy="12" stdDeviation="14" flood-color="#000" flood-opacity=".30"/>
    </filter>
    <style>
      .title{font:800 42px Inter,Segoe UI,Arial,sans-serif;fill:#F8FAFC}
      .sub{font:600 18px Inter,Segoe UI,Arial,sans-serif;fill:#A5F3FC}
      .label{font:700 22px Inter,Segoe UI,Arial,sans-serif;fill:#E5E7EB}
      .small{font:500 17px Inter,Segoe UI,Arial,sans-serif;fill:#CBD5E1}
      .num{font:900 50px Inter,Segoe UI,Arial,sans-serif;fill:#F8FAFC}
      .micro{font:700 13px Inter,Segoe UI,Arial,sans-serif;fill:#94A3B8;letter-spacing:1.4px}
    </style>
  </defs>
  <rect width="1200" height="560" rx="30" fill="url(#bg)"/>
  <rect x="1" y="1" width="1198" height="558" rx="30" stroke="url(#aura)" stroke-opacity=".48"/>
  <text x="70" y="72" class="title">Repository Language Distribution</text>
  <text x="70" y="104" class="sub">Largest language shares from public repositories.</text>
  <g>
      <text x="90" y="172" class="label">TypeScript</text>
      <rect x="310" y="150" width="790" height="32" rx="16" fill="#1E293B"/>
      <rect x="310" y="150" width="420" height="32" rx="16" fill="#22D3EE"/>
      <text x="1120" y="173" text-anchor="end" class="label">50%</text>
    </g><g>
      <text x="90" y="234" class="label">HTML</text>
      <rect x="310" y="212" width="790" height="32" rx="16" fill="#1E293B"/>
      <rect x="310" y="212" width="134" height="32" rx="16" fill="#8B5CF6"/>
      <text x="1120" y="235" text-anchor="end" class="label">16%</text>
    </g><g>
      <text x="90" y="296" class="label">JavaScript</text>
      <rect x="310" y="274" width="790" height="32" rx="16" fill="#1E293B"/>
      <rect x="310" y="274" width="101" height="32" rx="16" fill="#F59E0B"/>
      <text x="1120" y="297" text-anchor="end" class="label">12%</text>
    </g><g>
      <text x="90" y="358" class="label">Python</text>
      <rect x="310" y="336" width="790" height="32" rx="16" fill="#1E293B"/>
      <rect x="310" y="336" width="84" height="32" rx="16" fill="#10B981"/>
      <text x="1120" y="359" text-anchor="end" class="label">10%</text>
    </g><g>
      <text x="90" y="420" class="label">PHP</text>
      <rect x="310" y="398" width="790" height="32" rx="16" fill="#1E293B"/>
      <rect x="310" y="398" width="59" height="32" rx="16" fill="#60A5FA"/>
      <text x="1120" y="421" text-anchor="end" class="label">7%</text>
    </g><g>
      <text x="90" y="482" class="label">Jupyter Notebook</text>
      <rect x="310" y="460" width="790" height="32" rx="16" fill="#1E293B"/>
      <rect x="310" y="460" width="42" height="32" rx="16" fill="#F472B6"/>
      <text x="1120" y="483" text-anchor="end" class="label">5%</text>
    </g>
  <text x="70" y="528" class="micro">AUTO-GENERATED BY WORKFLOW - UPDATED 2026-06-17</text>
</svg>