<svg width="760" height="158" viewBox="0 0 760 158" fill="none" xmlns="http://www.w3.org/2000/svg" role="img" aria-label="READY: Listening signal connected by Last.fm + AirScrobble">
  <defs>
    <linearGradient id="bg" x1="0" y1="0" x2="760" y2="158" gradientUnits="userSpaceOnUse">
      <stop stop-color="#020617"/>
      <stop offset=".58" stop-color="#0B1120"/>
      <stop offset="1" stop-color="#111827"/>
    </linearGradient>
    <linearGradient id="pulse" x1="526" y1="106" x2="700" y2="106" gradientUnits="userSpaceOnUse">
      <stop stop-color="#22D3EE"/>
      <stop offset=".5" stop-color="#1DB954"/>
      <stop offset="1" stop-color="#A78BFA"/>
    </linearGradient>
    <filter id="glow" x="-30%" y="-30%" width="160%" height="160%">
      <feGaussianBlur stdDeviation="7" result="blur"/>
      <feMerge>
        <feMergeNode in="blur"/>
        <feMergeNode in="SourceGraphic"/>
      </feMerge>
    </filter>
  </defs>
  <rect x="1" y="1" width="758" height="156" rx="22" fill="url(#bg)" stroke="#22D3EE" stroke-opacity=".62"/>
  <rect x="22" y="24" width="112" height="112" rx="24" fill="#083344" stroke="#22D3EE" stroke-opacity=".42"/>
  <circle cx="78" cy="80" r="34" fill="#22D3EE" fill-opacity=".12"/>
  <path d="M58 69c17-6 35-4 51 5" stroke="#22D3EE" stroke-width="5" stroke-linecap="round"/>
  <path d="M62 83c12-4 25-3 36 4" stroke="#22D3EE" stroke-width="4" stroke-linecap="round"/>
  <path d="M66 96c8-2 17-1 24 3" stroke="#22D3EE" stroke-width="3" stroke-linecap="round"/>
  <rect x="156" y="28" width="142" height="26" rx="13" fill="#22D3EE" fill-opacity=".14" stroke="#22D3EE" stroke-opacity=".34"/>
  <circle cx="176" cy="41" r="5" fill="#22D3EE"></circle>
  <text x="190" y="46" fill="#22D3EE" font-family="Segoe UI, Inter, Arial, sans-serif" font-size="12" font-weight="800" letter-spacing="1.2">READY</text>
  <text x="156" y="84" fill="#F8FAFC" font-family="Segoe UI, Inter, Arial, sans-serif" font-size="28" font-weight="850">Listening signal connected</text>
  <text x="156" y="111" fill="#CBD5E1" font-family="Segoe UI, Inter, Arial, sans-serif" font-size="17" font-weight="650">Last.fm + AirScrobble</text>
  <text x="156" y="132" fill="#94A3B8" font-family="Segoe UI, Inter, Arial, sans-serif" font-size="13" font-weight="650">Now-playing card for the profile music layer</text>
  <path d="M526 106c20-18 38 18 58 0s39 18 58 0 38 18 58 0" stroke="url(#pulse)" stroke-width="4" stroke-linecap="round" opacity=".92" filter="url(#glow)" stroke-dasharray="18 10"></path>
  <text x="526" y="132" fill="#64748B" font-family="Segoe UI, Inter, Arial, sans-serif" font-size="10" font-weight="800" letter-spacing="1.4">LAST.FM + AIRSCROBBLE</text>
</svg>
