<svg width="1200" height="590" viewBox="0 0 1200 590" fill="none" xmlns="http://www.w3.org/2000/svg" role="img" aria-label="Research Output Meter">
  <defs>
    <linearGradient id="bg" x1="0" y1="0" x2="1200" y2="590">
      <stop stop-color="#020617"/>
      <stop offset=".58" stop-color="#07111F"/>
      <stop offset="1" stop-color="#111827"/>
    </linearGradient>
    <linearGradient id="aura" x1="76" y1="40" x2="1124" y2="560">
      <stop stop-color="#22D3EE"/>
      <stop offset=".5" stop-color="#8B5CF6"/>
      <stop offset="1" stop-color="#F59E0B"/>
    </linearGradient>
    <filter id="shadow" x="-20%" y="-20%" width="140%" height="140%">
      <feDropShadow dx="0" dy="12" stdDeviation="14" flood-color="#000" flood-opacity=".30"/>
    </filter>
    <style>
      .title{font:800 42px Inter,Segoe UI,Arial,sans-serif;fill:#F8FAFC}
      .sub{font:600 18px Inter,Segoe UI,Arial,sans-serif;fill:#A5F3FC}
      .label{font:700 22px Inter,Segoe UI,Arial,sans-serif;fill:#E5E7EB}
      .small{font:500 17px Inter,Segoe UI,Arial,sans-serif;fill:#CBD5E1}
      .num{font:900 50px Inter,Segoe UI,Arial,sans-serif;fill:#F8FAFC}
      .micro{font:700 13px Inter,Segoe UI,Arial,sans-serif;fill:#94A3B8;letter-spacing:1.4px}
    </style>
  </defs>
  <rect width="1200" height="590" rx="30" fill="url(#bg)"/>
  <rect x="1" y="1" width="1198" height="588" rx="30" stroke="url(#aura)" stroke-opacity=".48"/>
  <text x="70" y="72" class="title">Research Output Meter</text>
  <text x="70" y="104" class="sub">Publication and submission status by active research field.</text>
  <g>
      <text x="90" y="174" class="label">Image Encryption / Decryption</text>
      <text x="90" y="200" class="small">published</text>
      <rect x="420" y="156" width="640" height="34" rx="17" fill="#1E293B"/>
      <rect x="420" y="156" width="640" height="34" rx="17" fill="#22D3EE"/>
      <text x="1100" y="181" text-anchor="end" class="label">1 paper</text>
    </g><g>
      <text x="90" y="258" class="label">Cyber Security</text>
      <text x="90" y="284" class="small">submitted</text>
      <rect x="420" y="240" width="640" height="34" rx="17" fill="#1E293B"/>
      <rect x="420" y="240" width="0" height="34" rx="17" fill="#8B5CF6"/>
      <text x="1100" y="265" text-anchor="end" class="label">0 papers</text>
    </g><g>
      <text x="90" y="342" class="label">Deep Learning</text>
      <text x="90" y="368" class="small">research in progress</text>
      <rect x="420" y="324" width="640" height="34" rx="17" fill="#1E293B"/>
      <rect x="420" y="324" width="0" height="34" rx="17" fill="#F59E0B"/>
      <text x="1100" y="349" text-anchor="end" class="label">0 papers</text>
    </g><g>
      <text x="90" y="426" class="label">Signal Processing</text>
      <text x="90" y="452" class="small">submitted, not accepted yet</text>
      <rect x="420" y="408" width="640" height="34" rx="17" fill="#1E293B"/>
      <rect x="420" y="408" width="0" height="34" rx="17" fill="#10B981"/>
      <text x="1100" y="433" text-anchor="end" class="label">0 papers</text>
    </g>
    <rect x="90" y="510" width="1020" height="42" rx="21" fill="#020617" stroke="#334155"/>
    <text x="600" y="537" text-anchor="middle" class="small">Counts show accepted publications only; submitted and in-progress fields stay at 0 until accepted.</text>
  <text x="70" y="558" class="micro">AUTO-GENERATED BY WORKFLOW - UPDATED 2026-06-01</text>
</svg>