<svg id="Layer_1" data-name="Layer 1" xmlns="http://www.w3.org/2000/svg" viewBox="0 0 51.85 51.85"><defs><style>.cls-1{fill:#548b5e;}</style></defs><path class="cls-1" d="M-236.08,386.64a44.61,44.61,0,0,0,3,3.39c3.57,3.19,3.27,6.24-.18,9.26-.62.55-1.2,1.16-1.79,1.75-8,8-12,7.67-17.81-2.21-1.2-2-1.13-5.62-.22-7.94a60.17,60.17,0,0,1,32.68-34.06c7-3.13,8.13-2.86,13.58,2.56,6.54,6.48,6.54,7,0,13.46-1.29,1.3-2.6,2.59-3.9,3.88-2.77,2.73-5.77,2.94-8.22-.08s-5-2.82-7.48-.41C-229.74,379.55-232.84,383.14-236.08,386.64Zm30.17-20.27a36,36,0,0,1-3.13-3.45c-2.9-4.28-6.31-4.28-10.68-2.09-11.54,5.77-20.62,14-26.79,25.34-5,9.14-5,9.13,2.68,16.22a1.93,1.93,0,0,0,.8.26l8.12-8c-5.89-7.89-5.73-9.93,1.4-17.65a27.21,27.21,0,0,1,3.27-3.08c7.27-5.66,8.05-5.62,14.8.35a1.47,1.47,0,0,0,.71.19C-211.83,371.81-209,369.22-205.91,366.37Z" transform="translate(253.74 -354.82)"/></svg>