<svg id="Layer_1" data-name="Layer 1" xmlns="http://www.w3.org/2000/svg" viewBox="0 0 790.21 537.18"><defs><style>.cls-1{fill:#02303a;}</style></defs><path class="cls-1" d="M852.16-10C804.42-54.24,727.41-55.47,678.05-12.8a11,11,0,0,0-3.83,7.94,11.13,11.13,0,0,0,3.55,8l15.61,15a12.66,12.66,0,0,0,15.6,1A74.74,74.74,0,0,1,752,5.88c29.1-.12,55.39,16.05,66.55,40.93s5,53.54-15.63,72.55c-99.46,92.1-232.24-166-533.55-33.21A39,39,0,0,0,247.64,109a35.47,35.47,0,0,0,3.44,30.28L302.73,222c11.21,17.91,35.86,24.19,55.39,14.11l1.28-.68-1,.68,22.91-11.91a524.84,524.84,0,0,0,72.09-49.86,13.46,13.46,0,0,1,16.51,0h0a10.54,10.54,0,0,1,4.47,8.45,10.76,10.76,0,0,1-3.92,8.45,540,540,0,0,1-76,52.22h-.73L370.8,255.31A67.89,67.89,0,0,1,339.05,263c-23.39,0-45-11.48-56.85-30.16l-48.82-78.16C139.57,216,82.63,334.23,113.2,484.21c1.12,5.17,6,8.91,11.68,9h55.66c6,0,11-4.13,11.77-9.63,5.14-37.73,39.79-66,80.85-66s75.72,28.3,80.85,66c.78,5.51,5.86,9.63,11.87,9.63h54.2c6,0,11-4.13,11.77-9.63,5.3-37.63,39.92-65.78,80.9-65.78s75.59,28.15,80.89,65.78c.74,5.5,5.78,9.63,11.77,9.63H659c6.48,0,11.76-4.81,11.86-10.81C672.12,412.48,692.47,332.2,750.5,292,951.53,152.73,898.69,33.34,852.16-10Zm-205,210.65-38.32-17.83h0c0-10.53,7.87-19.65,19-21.88s22.4,3,27.07,12.65,1.44,20.92-7.74,27.15Z" transform="translate(-104.9 44.01)"/></svg>