<?xml version="1.0" standalone="no"?>
<!DOCTYPE svg PUBLIC "-//W3C//DTD SVG 20010904//EN"
 "http://www.w3.org/TR/2001/REC-SVG-20010904/DTD/svg10.dtd">
<svg version="1.0" xmlns="http://www.w3.org/2000/svg"
 width="250.000000pt" height="250.000000pt" viewBox="0 0 250.000000 250.000000"
 preserveAspectRatio="xMidYMid meet">

<g transform="translate(0.000000,250.000000) scale(0.100000,-0.100000)"
fill="#000000" stroke="none">
<path d="M921 2319 c-2 -103 -45 -165 -199 -291 -169 -139 -193 -185 -150
-280 15 -31 55 -84 97 -128 73 -76 79 -77 31 -5 -73 107 -86 174 -51 243 10
20 68 82 128 138 68 64 119 120 136 152 35 65 44 135 24 182 l-15 35 -1 -46z"/>
<path d="M1814 2221 c7 -10 -2 -53 -19 -93 -5 -13 -2 -18 9 -18 9 0 16 -1 16
-2 0 -2 -7 -21 -15 -43 -19 -53 -19 -105 1 -133 28 -41 142 -22 178 29 20 29
21 91 1 129 l-16 30 41 0 c90 0 140 -48 140 -135 0 -48 -17 -44 -40 10 -15 36
-24 45 -44 45 -29 0 -36 -16 -36 -86 0 -46 4 -59 26 -81 15 -15 23 -31 19 -41
-5 -13 -22 -14 -118 -9 -171 9 -214 -14 -167 -91 11 -18 44 -47 72 -65 40 -25
47 -33 31 -35 -11 -2 -39 3 -61 11 l-42 15 0 -37 c0 -20 -3 -60 -6 -88 -6 -45
-4 -53 10 -53 9 0 16 8 16 20 0 22 11 26 108 35 35 3 70 9 78 12 10 4 14 -2
14 -21 0 -20 5 -26 23 -26 20 0 22 4 19 38 -2 22 1 55 6 75 11 41 11 41 -34
28 -39 -11 -106 16 -124 50 -11 19 -10 25 6 37 19 13 95 12 150 -4 20 -5 23 0
33 46 6 28 11 62 11 75 0 14 7 26 18 29 39 13 57 65 57 162 -1 102 -13 131
-68 161 -43 24 -169 24 -214 0 -31 -16 -32 -16 -35 6 -2 14 -11 23 -27 25 -14
2 -21 0 -17 -7z m120 -107 c20 -51 -9 -158 -41 -152 -25 5 -31 109 -8 144 18
28 40 31 49 8z"/>
<path d="M964 2011 c-91 -43 -156 -97 -185 -152 -32 -64 -21 -119 40 -203 36
-51 45 -98 27 -141 -13 -29 52 32 70 67 21 41 17 69 -17 124 -52 80 -62 111
-49 149 13 38 81 105 158 154 50 32 61 42 45 40 -5 0 -44 -17 -89 -38z"/>
<path d="M1200 1517 c51 -25 75 -63 65 -106 -8 -38 -60 -98 -114 -132 -50 -32
-42 -38 16 -12 106 48 155 102 155 170 0 57 -61 104 -134 103 l-33 -1 45 -22z"/>
<path d="M438 1505 c-58 -16 -121 -47 -125 -61 -20 -65 595 -64 715 1 15 8 25
14 22 15 -3 0 -59 -7 -125 -15 -137 -17 -439 -21 -478 -6 -42 16 -32 37 26 60
58 22 37 26 -35 6z"/>
<path d="M1687 1452 c-39 -42 -29 -162 12 -162 44 0 65 78 40 149 -12 35 -28
39 -52 13z"/>
<path d="M2006 1455 c16 -41 -50 -55 -169 -36 l-49 8 6 -26 c3 -14 9 -54 12
-89 6 -49 10 -62 23 -60 8 2 18 14 21 28 6 23 11 25 56 25 65 -1 113 -21 120
-51 3 -13 12 -24 19 -24 9 0 12 30 11 120 l-1 120 -27 0 c-20 0 -26 -4 -22
-15z"/>
<path d="M458 1320 c-16 -12 -28 -26 -28 -31 0 -6 21 -20 48 -31 85 -38 348
-36 496 3 l39 11 -27 17 c-24 16 -33 16 -114 3 -88 -14 -328 -12 -364 3 -9 3
-18 16 -20 27 -3 20 -3 20 -30 -2z"/>
<path d="M1925 1196 c-16 -7 -45 -25 -63 -40 l-32 -28 -6 31 c-12 60 -24 42
-24 -37 l0 -79 47 23 c58 30 123 33 123 6 0 -38 -85 -92 -143 -92 -25 0 -39 6
-50 23 -24 35 -30 14 -12 -46 l16 -55 97 -4 c56 -2 110 -10 127 -19 40 -19 44
-52 10 -75 -33 -21 -96 -14 -164 20 l-48 25 -7 -45 c-3 -24 -12 -57 -21 -73
-13 -26 -13 -30 1 -35 24 -9 34 -7 34 7 0 6 4 19 10 27 8 12 11 12 27 -2 56
-49 124 -61 165 -28 34 26 71 115 72 172 1 59 -21 84 -89 102 l-49 12 31 22
c71 50 93 133 48 177 -27 28 -55 31 -100 11z"/>
<path d="M501 1154 c-32 -23 -25 -43 23 -64 100 -45 274 -46 417 -4 l54 16
-38 20 c-36 18 -45 18 -130 7 -118 -15 -261 -5 -287 21 -16 16 -20 17 -39 4z"/>
<path d="M265 1035 c-70 -29 -92 -52 -72 -73 38 -37 419 -69 636 -52 270 20
468 77 423 122 -9 9 -12 8 -12 -4 0 -44 -172 -76 -455 -85 -197 -6 -393 7
-463 31 -55 19 -50 47 13 68 43 15 46 17 20 17 -16 0 -57 -11 -90 -24z"/>
<path d="M1284 938 c-96 -57 -363 -93 -648 -86 -139 3 -180 2 -151 -6 58 -14
495 -13 581 2 102 17 194 48 229 76 38 30 30 39 -11 14z"/>
<path d="M230 503 c-1 -247 -6 -287 -49 -325 -29 -26 -29 -27 -11 -43 18 -16
21 -16 55 5 66 41 70 56 73 333 l3 247 -35 0 -36 0 0 -217z"/>
<path d="M1880 644 c-30 -12 -40 -38 -40 -107 0 -81 -10 -104 -55 -123 -54
-22 -84 -18 -96 13 -11 30 -4 93 11 93 5 0 16 -16 25 -36 19 -45 45 -42 62 6
13 37 8 96 -9 118 -15 18 -52 15 -71 -5 -40 -45 -48 -205 -13 -258 36 -54 109
-77 147 -46 22 18 24 26 21 90 -2 59 1 74 17 90 20 20 100 38 126 27 21 -8 35
-49 35 -102 0 -45 -14 -59 -25 -25 -10 33 -46 71 -66 71 -55 0 -50 -172 6
-194 28 -10 64 13 87 56 46 88 21 270 -44 312 -26 17 -95 28 -118 20z"/>
<path d="M413 588 c-21 -7 -33 -17 -33 -29 0 -16 7 -17 68 -12 90 7 112 -4
112 -57 l0 -40 -47 0 c-56 0 -127 -30 -142 -58 -20 -38 -13 -101 14 -127 32
-32 104 -34 153 -5 l34 21 5 -21 c3 -13 14 -20 29 -20 l24 0 0 149 c0 143 -1
151 -24 178 -21 24 -31 27 -92 30 -38 1 -84 -3 -101 -9z m148 -182 c2 -3 3
-25 1 -49 -4 -41 -7 -46 -42 -62 -42 -19 -71 -11 -90 25 -15 28 -13 38 15 65
18 19 35 25 68 25 24 0 46 -2 48 -4z"/>
<path d="M688 594 c-4 -3 2 -31 12 -62 10 -31 35 -110 55 -174 l36 -118 38 0
c21 0 43 6 50 13 16 20 89 245 97 300 l6 48 -33 -3 c-32 -3 -34 -5 -46 -68
-17 -83 -54 -210 -62 -210 -3 0 -20 51 -38 113 -46 163 -48 167 -81 167 -16 0
-31 -3 -34 -6z"/>
<path d="M1088 590 c-39 -12 -48 -19 -42 -35 4 -11 21 -12 75 -8 82 7 109 -8
109 -64 0 -33 0 -33 -47 -33 -70 -1 -130 -31 -149 -76 -19 -46 -11 -87 24
-115 22 -17 37 -20 79 -17 30 3 61 12 71 21 24 22 29 21 35 -4 4 -15 12 -20
29 -17 23 3 23 5 26 138 3 150 -5 183 -49 205 -30 16 -117 19 -161 5z m140
-227 c-3 -44 -6 -49 -39 -66 -61 -29 -111 5 -95 67 7 29 39 44 94 45 l43 1 -3
-47z"/>
</g>
</svg>
