<svg id="Layer_1" data-name="Layer 1" xmlns="http://www.w3.org/2000/svg" viewBox="0 0 201.74 224.14"><defs><style>.cls-1{fill:#cc0e0e;}.cls-2{fill:#c41212;}.cls-3{fill:#1e60c1;}</style></defs><path class="cls-1" d="M92.1,18.1c-.2,10.3-4.5,16.5-19.9,29.1-16.9,13.9-19.3,18.5-15,28,1.5,3.1,5.5,8.4,9.7,12.8,7.3,7.6,7.9,7.7,3.1.5-7.3-10.7-8.6-17.4-5.1-24.3,1-2,6.8-8.2,12.8-13.8,6.8-6.4,11.9-12,13.6-15.2,3.5-6.5,4.4-13.5,2.4-18.2l-1.5-3.5Z" transform="translate(-15.76 -13.5)"/><path class="cls-2" d="M181.4,27.9c.7,1-.2,5.3-1.9,9.3-.5,1.3-.2,1.8.9,1.8a3.48,3.48,0,0,1,1.6.2c0,.2-.7,2.1-1.5,4.3-1.9,5.3-1.9,10.5.1,13.3,2.8,4.1,14.2,2.2,17.8-2.9,2-2.9,2.1-9.1.1-12.9l-1.6-3H201c9,0,14,4.8,14,13.5,0,4.8-1.7,4.4-4-1-1.5-3.6-2.4-4.5-4.4-4.5-2.9,0-3.6,1.6-3.6,8.6,0,4.6.4,5.9,2.6,8.1,1.5,1.5,2.3,3.1,1.9,4.1-.5,1.3-2.2,1.4-11.8.9-17.1-.9-21.4,1.4-16.7,9.1,1.1,1.8,4.4,4.7,7.2,6.5,4,2.5,4.7,3.3,3.1,3.5a16,16,0,0,1-6.1-1.1L179,84.2v3.7c0,2-.3,6-.6,8.8-.6,4.5-.4,5.3,1,5.3.9,0,1.6-.8,1.6-2,0-2.2,1.1-2.6,10.8-3.5a47.4,47.4,0,0,0,7.8-1.2c1-.4,1.4.2,1.4,2.1s.5,2.6,2.3,2.6c2,0,2.2-.4,1.9-3.8a26.57,26.57,0,0,1,.6-7.5c1.1-4.1,1.1-4.1-3.4-2.8-3.9,1.1-10.6-1.6-12.4-5-1.1-1.9-1-2.5.6-3.7,1.9-1.3,9.5-1.2,15,.4,2,.5,2.3,0,3.3-4.6a49.79,49.79,0,0,0,1.1-7.5,2.84,2.84,0,0,1,1.8-2.9c3.9-1.3,5.7-6.5,5.7-16.2-.1-10.2-1.3-13.1-6.8-16.1-4.3-2.4-16.9-2.4-21.4,0-3.1,1.6-3.2,1.6-3.5-.6a2.8,2.8,0,0,0-2.7-2.5C181.7,27,181,27.2,181.4,27.9Zm12,10.7c2,5.1-.9,15.8-4.1,15.2-2.5-.5-3.1-10.9-.8-14.4C190.3,36.6,192.5,36.3,193.4,38.6Z" transform="translate(-15.76 -13.5)"/><path class="cls-1" d="M96.4,48.9c-9.1,4.3-15.6,9.7-18.5,15.2-3.2,6.4-2.1,11.9,4,20.3q5.4,7.65,2.7,14.1c-1.3,2.9,5.2-3.2,7-6.7,2.1-4.1,1.7-6.9-1.7-12.4-5.2-8-6.2-11.1-4.9-14.9S93.1,54,100.8,49.1c5-3.2,6.1-4.2,4.5-4A76.1,76.1,0,0,0,96.4,48.9Z" transform="translate(-15.76 -13.5)"/><path class="cls-3" d="M120,98.3c5.1,2.5,7.5,6.3,6.5,10.6-.8,3.8-6,9.8-11.4,13.2-5,3.2-4.2,3.8,1.6,1.2,10.6-4.8,15.5-10.2,15.5-17,0-5.7-6.1-10.4-13.4-10.3l-3.3.1Z" transform="translate(-15.76 -13.5)"/><path class="cls-3" d="M43.8,99.5c-5.8,1.6-12.1,4.7-12.5,6.1-2,6.5,59.5,6.4,71.5-.1,1.5-.8,2.5-1.4,2.2-1.5s-5.9.7-12.5,1.5c-13.7,1.7-43.9,2.1-47.8.6-4.2-1.6-3.2-3.7,2.6-6S51,97.5,43.8,99.5Z" transform="translate(-15.76 -13.5)"/><path class="cls-2" d="M168.7,104.8c-3.9,4.2-2.9,16.2,1.2,16.2,4.4,0,6.5-7.8,4-14.9C172.7,102.6,171.1,102.2,168.7,104.8Z" transform="translate(-15.76 -13.5)"/><path class="cls-2" d="M200.6,104.5c1.6,4.1-5,5.5-16.9,3.6l-4.9-.8.6,2.6c.3,1.4.9,5.4,1.2,8.9.6,4.9,1,6.2,2.3,6A3.79,3.79,0,0,0,185,122c.6-2.3,1.1-2.5,5.6-2.5,6.5.1,11.3,2.1,12,5.1.3,1.3,1.2,2.4,1.9,2.4.9,0,1.2-3,1.1-12l-.1-12h-2.7C200.8,103,200.2,103.4,200.6,104.5Z" transform="translate(-15.76 -13.5)"/><path class="cls-3" d="M45.8,118c-1.6,1.2-2.8,2.6-2.8,3.1s2.1,2,4.8,3.1c8.5,3.8,34.8,3.6,49.6-.3l3.9-1.1-2.7-1.7c-2.4-1.6-3.3-1.6-11.4-.3-8.8,1.4-32.8,1.2-36.4-.3a3.81,3.81,0,0,1-2-2.7C48.5,115.8,48.5,115.8,45.8,118Z" transform="translate(-15.76 -13.5)"/><path class="cls-2" d="M192.5,130.4a32.66,32.66,0,0,0-6.3,4l-3.2,2.8-.6-3.1c-1.2-6-2.4-4.2-2.4,3.7v7.9l4.7-2.3c5.8-3,12.3-3.3,12.3-.6,0,3.8-8.5,9.2-14.3,9.2-2.5,0-3.9-.6-5-2.3-2.4-3.5-3-1.4-1.2,4.6l1.6,5.5,9.7.4c5.6.2,11,1,12.7,1.9,4,1.9,4.4,5.2,1,7.5-3.3,2.1-9.6,1.4-16.4-2l-4.8-2.5-.7,4.5a24.17,24.17,0,0,1-2.1,7.3c-1.3,2.6-1.3,3,.1,3.5,2.4.9,3.4.7,3.4-.7a5.64,5.64,0,0,1,1-2.7c.8-1.2,1.1-1.2,2.7.2,5.6,4.9,12.4,6.1,16.5,2.8,3.4-2.6,7.1-11.5,7.2-17.2.1-5.9-2.1-8.4-8.9-10.2l-4.9-1.2,3.1-2.2c7.1-5,9.3-13.3,4.8-17.7C199.8,128.7,197,128.4,192.5,130.4Z" transform="translate(-15.76 -13.5)"/><path class="cls-3" d="M50.1,134.6c-3.2,2.3-2.5,4.3,2.3,6.4,10,4.5,27.4,4.6,41.7.4l5.4-1.6-3.8-2c-3.6-1.8-4.5-1.8-13-.7-11.8,1.5-26.1.5-28.7-2.1C52.4,133.4,52,133.3,50.1,134.6Z" transform="translate(-15.76 -13.5)"/><path class="cls-3" d="M26.5,146.5c-7,2.9-9.2,5.2-7.2,7.3,3.8,3.7,41.9,6.9,63.6,5.2,27-2,46.8-7.7,42.3-12.2-.9-.9-1.2-.8-1.2.4,0,4.4-17.2,7.6-45.5,8.5-19.7.6-39.3-.7-46.3-3.1-5.5-1.9-5-4.7,1.3-6.8,4.3-1.5,4.6-1.7,2-1.7C33.9,144.1,29.8,145.2,26.5,146.5Z" transform="translate(-15.76 -13.5)"/><path class="cls-3" d="M128.4,156.2c-9.6,5.7-36.3,9.3-64.8,8.6-13.9-.3-18-.2-15.1.6,5.8,1.4,49.5,1.3,58.1-.2,10.2-1.7,19.4-4.8,22.9-7.6C133.3,154.6,132.5,153.7,128.4,156.2Z" transform="translate(-15.76 -13.5)"/><path class="cls-2" d="M23,199.7c-.1,24.7-.6,28.7-4.9,32.5-2.9,2.6-2.9,2.7-1.1,4.3s2.1,1.6,5.5-.5c6.6-4.1,7-5.6,7.3-33.3l.3-24.7H23Z" transform="translate(-15.76 -13.5)"/><path class="cls-2" d="M188,185.6c-3,1.2-4,3.8-4,10.7,0,8.1-1,10.4-5.5,12.3-5.4,2.2-8.4,1.8-9.6-1.3s-.4-9.3,1.1-9.3c.5,0,1.6,1.6,2.5,3.6,1.9,4.5,4.5,4.2,6.2-.6,1.3-3.7.8-9.6-.9-11.8-1.5-1.8-5.2-1.5-7.1.5-4,4.5-4.8,20.5-1.3,25.8s10.9,7.7,14.7,4.6c2.2-1.8,2.4-2.6,2.1-9-.2-5.9.1-7.4,1.7-9,2-2,10-3.8,12.6-2.7,2.1.8,3.5,4.9,3.5,10.2,0,4.5-1.4,5.9-2.5,2.5s-4.6-7.1-6.6-7.1c-5.5,0-5,17.2.6,19.4,2.8,1,6.4-1.3,8.7-5.6,4.6-8.8,2.1-27-4.4-31.2C197.2,185.9,190.3,184.8,188,185.6Z" transform="translate(-15.76 -13.5)"/><path class="cls-2" d="M41.3,191.2c-2.1.7-3.3,1.7-3.3,2.9,0,1.6.7,1.7,6.8,1.2,9-.7,11.2.4,11.2,5.7v4H51.3c-5.6,0-12.7,3-14.2,5.8-2,3.8-1.3,10.1,1.4,12.7,3.2,3.2,10.4,3.4,15.3.5l3.4-2.1.5,2.1a2.69,2.69,0,0,0,2.9,2H63V211.1c0-14.3-.1-15.1-2.4-17.8-2.1-2.4-3.1-2.7-9.2-3C47.6,190.2,43,190.6,41.3,191.2Zm14.8,18.2a16.33,16.33,0,0,1,.1,4.9c-.4,4.1-.7,4.6-4.2,6.2-4.2,1.9-7.1,1.1-9-2.5-1.5-2.8-1.3-3.8,1.5-6.5,1.8-1.9,3.5-2.5,6.8-2.5A18,18,0,0,1,56.1,209.4Z" transform="translate(-15.76 -13.5)"/><path class="cls-2" d="M68.8,190.6c-.4.3.2,3.1,1.2,6.2s3.5,11,5.5,17.4L79.1,226h3.8c2.1,0,4.3-.6,5-1.3,1.6-2,8.9-24.5,9.7-30l.6-4.8-3.3.3c-3.2.3-3.4.5-4.6,6.8-1.7,8.3-5.4,21-6.2,21-.3,0-2-5.1-3.8-11.3-4.6-16.3-4.8-16.7-8.1-16.7A7.19,7.19,0,0,0,68.8,190.6Z" transform="translate(-15.76 -13.5)"/><path class="cls-2" d="M108.8,191c-3.9,1.2-4.8,1.9-4.2,3.5.4,1.1,2.1,1.2,7.5.8,8.2-.7,10.9.8,10.9,6.4,0,3.3,0,3.3-4.7,3.3-7,.1-13,3.1-14.9,7.6s-1.1,8.7,2.4,11.5c2.2,1.7,3.7,2,7.9,1.7,3-.3,6.1-1.2,7.1-2.1,2.4-2.2,2.9-2.1,3.5.4.4,1.5,1.2,2,2.9,1.7,2.3-.3,2.3-.5,2.6-13.8.3-15-.5-18.3-4.9-20.5C121.9,189.9,113.2,189.6,108.8,191Zm14,22.7c-.3,4.4-.6,4.9-3.9,6.6-6.1,2.9-11.1-.5-9.5-6.7.7-2.9,3.9-4.4,9.4-4.5l4.3-.1Z" transform="translate(-15.76 -13.5)"/></svg>